<svg xmlns="http://www.w3.org/2000/svg" id="Ebene_1" viewBox="0 0 1362.82 3310.57"><defs><style>.cls-1{fill:#fff;}.cls-1,.cls-2{stroke-width:0px;}.cls-2{fill:#e60077;}</style></defs><rect class="cls-2" x="834.89" y="2.49" width="182.93" height="1644.71" transform="translate(172.22 -159.93) rotate(10.87)"></rect><path class="cls-1" d="m0,1493.48v1817.09h1362.82v-1817.09H0Zm1054.82,285.28c-11.58,11.58-27.48,18.63-44.97,18.63H352.97c-35.21,0-63.6-28.39-63.6-63.6,0-17.72,7.04-33.62,18.63-44.97,11.36-11.58,27.26-18.63,44.97-18.63h656.88c34.98,0,63.6,28.39,63.6,63.6,0,17.72-7.27,33.62-18.63,44.97Z"></path><polygon class="cls-2" points="727.97 1704.49 540.81 1704.49 221 171.55 399.99 134.07 727.97 1704.49"></polygon></svg>